External Loads File
version=1
nRows=31
nColumns=13
Range=5.000000e-03-10 seconds
endheader
time 	forceRightX 	forceRightY 	forceRightZ 	pointRightX 	pointRightY 	pointRightZ 	forceLeftX 	forceLeftY 	forceLeftZ 	pointLeftX 	pointLeftY 	pointLeftZ 		
0.005000 47.983184 242.157791 -0.000000 0.164834 0.173249 -0.165875 -7.768543 127.415302 -0.000000 0.324643 0.467515 -0.416772
0.010000 48.002072 242.118461 -0.000000 0.164866 0.173243 -0.165876 -6.086905 130.123016 -0.000000 0.324643 0.467518 -0.416762
0.015000 48.025769 242.047781 -0.000000 0.164883 0.173243 -0.165878 -4.615543 132.483598 -0.000000 0.324643 0.467530 -0.416750
0.020000 48.006765 241.941843 -0.000000 0.164923 0.173225 -0.165872 -3.444343 134.361851 -0.000000 0.324631 0.467546 -0.416755
0.025000 47.965337 241.811087 -0.000000 0.164977 0.173234 -0.165918 -2.570829 135.739773 -0.000000 0.324598 0.467547 -0.416756
0.030000 47.952595 241.675580 -0.000000 0.164988 0.173224 -0.165918 -1.968691 136.630609 -0.000000 0.324588 0.467556 -0.416752
0.035000 47.926452 241.566142 -0.000000 0.165013 0.173189 -0.165918 -1.666347 137.052318 -0.000000 0.324582 0.467573 -0.416765
0.040000 47.925041 241.477147 -0.000000 0.165033 0.173188 -0.165912 -1.604440 137.081413 -0.000000 0.324574 0.467571 -0.416756
0.045000 47.913878 241.410400 -0.000000 0.165050 0.173184 -0.165920 -1.719019 136.849806 -0.000000 0.324564 0.467585 -0.416759
0.050000 47.893328 241.369676 -0.000000 0.165066 0.173178 -0.165932 -1.933796 136.478241 -0.000000 0.324550 0.467603 -0.416753
0.055000 47.891048 241.353690 -0.000000 0.165076 0.173188 -0.165916 -2.183023 136.060797 -0.000000 0.324544 0.467604 -0.416755
0.060000 47.891935 241.358064 -0.000000 0.165075 0.173175 -0.165936 -2.426073 135.692371 -0.000000 0.324544 0.467601 -0.416751
0.065000 47.883050 241.373368 -0.000000 0.165089 0.173187 -0.165920 -2.626371 135.439881 -0.000000 0.324545 0.467612 -0.416747
0.070000 47.866576 241.390229 -0.000000 0.165085 0.173168 -0.165934 -2.764078 135.306400 -0.000000 0.324537 0.467610 -0.416750
0.075000 47.842009 241.397102 -0.000000 0.165088 0.173161 -0.165930 -2.832367 135.270070 -0.000000 0.324544 0.467626 -0.416739
0.080000 47.810766 241.373660 -0.000000 0.165094 0.173156 -0.165928 -2.820486 135.323934 -0.000000 0.324549 0.467610 -0.416742
0.085000 47.740668 241.306581 -0.000000 0.165103 0.173160 -0.165937 -2.755541 135.441369 -0.000000 0.324548 0.467623 -0.416738
0.090000 47.655025 241.187629 -0.000000 0.165108 0.173151 -0.165929 -2.659925 135.563796 -0.000000 0.324562 0.467619 -0.416740
0.095000 47.562628 241.031304 -0.000000 0.165100 0.173162 -0.165926 -2.552410 135.674088 -0.000000 0.324565 0.467602 -0.416731
0.100000 47.465531 240.860542 -0.000000 0.165095 0.173162 -0.165922 -2.431158 135.818172 -0.000000 0.324579 0.467613 -0.416729
0.105000 47.394489 240.683579 -0.000000 0.165104 0.173166 -0.165934 -2.288241 136.020821 -0.000000 0.324589 0.467605 -0.416732
0.110000 47.367112 240.501513 -0.000000 0.165101 0.173167 -0.165932 -2.145390 136.247522 -0.000000 0.324591 0.467614 -0.416725
0.115000 47.404601 240.315920 -0.000000 0.165095 0.173164 -0.165931 -2.014419 136.465519 -0.000000 0.324589 0.467605 -0.416731
0.120000 47.524085 240.129789 -0.000000 0.165080 0.173170 -0.165939 -1.883466 136.680123 -0.000000 0.324606 0.467593 -0.416718
0.125000 47.676182 239.955252 -0.000000 0.165069 0.173191 -0.165934 -1.775939 136.885667 -0.000000 0.324609 0.467601 -0.416711
0.130000 47.841942 239.806668 -0.000000 0.165064 0.173183 -0.165936 -1.705471 137.051361 -0.000000 0.324610 0.467591 -0.416723
0.135000 48.033376 239.706975 -0.000000 0.165042 0.173200 -0.165933 -1.650798 137.181820 -0.000000 0.324626 0.467595 -0.416724
0.140000 48.215651 239.681575 -0.000000 0.165013 0.173212 -0.165931 -1.604596 137.314409 -0.000000 0.324635 0.467583 -0.416721
0.145000 48.350509 239.733566 -0.000000 0.164995 0.173220 -0.165938 -1.577142 137.459951 -0.000000 0.324642 0.467577 -0.416721
0.150000 48.442908 239.846170 -0.000000 0.164975 0.173231 -0.165934 -1.567406 137.608819 -0.000000 0.324653 0.467571 -0.416718
0.155000 48.494096 240.002010 -0.000000 0.164955 0.173232 -0.165927 -1.571745 137.772325 -0.000000 0.324667 0.467551 -0.416723
